<?xml version="1.0" encoding="utf-8"?>
<!-- Generator: Adobe Illustrator 23.0.6, SVG Export Plug-In . SVG Version: 6.00 Build 0)  -->
<svg version="1.1" id="Layer_1" xmlns="http://www.w3.org/2000/svg" xmlns:xlink="http://www.w3.org/1999/xlink" x="0px" y="0px"
	 viewBox="0 0 32 32" style="enable-background:new 0 0 32 32;" xml:space="preserve">
<style type="text/css">
	.st0{fill:none;stroke:url(#Path_1_);stroke-width:2.6352;}
	.st1{fill:none;stroke:#306BE6;stroke-width:1.1934;stroke-linecap:round;stroke-linejoin:round;}
	.st2{fill:url(#SVGID_1_);}
	.st3{fill:url(#SVGID_2_);}
</style>
<g id="Lenders_list" transform="translate(-56.000000, -18.000000)">
	<g id="spark_logo" transform="translate(57.000000, 19.000000)">
		
			<linearGradient id="Path_1_" gradientUnits="userSpaceOnUse" x1="-0.2852" y1="31.8065" x2="0.7274" y2="31.8065" gradientTransform="matrix(22.1333 0 0 -27.4118 4.6122 885.746)">
			<stop  offset="0" style="stop-color:#7B8BFC"/>
			<stop  offset="1" style="stop-color:#306BE6"/>
		</linearGradient>
		<path id="Path" class="st0" d="M16.7,12.2c0,2-0.8,3.9-2.3,5.3c-1.3,1.2-2.2,2.9-2.3,4.7v0c0,0,0,0.1,0,0.1c0,0.3-0.3,0.5-0.6,0.6
			h-4c-0.3,0-0.6-0.2-0.7-0.5c0,0,0,0,0,0c0,0,0-0.1,0-0.1v0c-0.1-1.8-0.9-3.4-2.2-4.6c-2.5-2.2-3.1-5.8-1.5-8.8s4.9-4.4,8.1-3.6
			S16.8,8.8,16.7,12.2L16.7,12.2z"/>
		<line class="st1" x1="9.5" y1="0" x2="9.5" y2="2"/>
		<line class="st1" x1="3.4" y1="2.1" x2="4.4" y2="3.3"/>
		<line class="st1" x1="0" y1="6.9" x2="1.2" y2="7.2"/>
		<line class="st1" x1="9.5" y1="0" x2="9.5" y2="2"/>
		<line class="st1" x1="15.6" y1="2.1" x2="14.6" y2="3.3"/>
		<line class="st1" x1="19.1" y1="6.9" x2="17.9" y2="7.2"/>
		
			<linearGradient id="SVGID_1_" gradientUnits="userSpaceOnUse" x1="-0.1362" y1="31.9824" x2="0.5177" y2="31.9824" gradientTransform="matrix(35.5428 0 0 -23.1285 11.8486 758.7781)">
			<stop  offset="0" style="stop-color:#7B8BFC"/>
			<stop  offset="0.19" style="stop-color:#306BE6"/>
			<stop  offset="0.23" style="stop-color:#3263CA"/>
			<stop  offset="0.27" style="stop-color:#355BAB"/>
			<stop  offset="0.33" style="stop-color:#38538F"/>
			<stop  offset="0.39" style="stop-color:#3A4D79"/>
			<stop  offset="0.46" style="stop-color:#3B4968"/>
			<stop  offset="0.54" style="stop-color:#3C455D"/>
			<stop  offset="0.66" style="stop-color:#3D4456"/>
			<stop  offset="1" style="stop-color:#3D4354"/>
		</linearGradient>
		<path class="st2" d="M30.2,22.5c0,0.6-0.1,1.3-0.4,1.9c-0.3,0.5-0.7,1-1.1,1.3c-0.5,0.4-1.1,0.6-1.7,0.8c-0.7,0.2-1.4,0.2-2.1,0.2
			h-17c-0.5,0-0.9-0.4-0.9-0.9l0,0c0-0.5,0.4-0.9,0.9-0.9h11.4h5.6c1.1,0,1.9-0.2,2.5-0.6c0.6-0.4,0.9-0.9,0.9-1.7
			c0-0.6-0.2-1-0.5-1.3c-0.3-0.3-0.8-0.6-1.5-0.8c-0.6-0.2-1.4-0.4-2.4-0.7c-0.9-0.2-1.7-0.5-2.5-0.8c-0.7-0.3-1.2-0.7-1.5-1.2
			c-0.3-0.5-0.5-1.1-0.5-1.9c0-1,0.2-1.8,0.7-2.4c0.5-0.7,1.1-1.2,1.9-1.5c0.9-0.3,1.8-0.5,2.8-0.5c0.6,0,1.3,0.1,1.9,0.2
			c0.6,0.1,1.1,0.3,1.6,0.6c0.5,0.2,1,0.6,1.4,0.9l-0.9,1.5c-0.2-0.2-0.4-0.4-0.7-0.6c-0.3-0.2-0.6-0.4-0.9-0.5
			c-0.4-0.2-0.8-0.3-1.1-0.4c-0.4-0.1-0.9-0.1-1.3-0.1c-1.1,0-2,0.2-2.5,0.6c-0.5,0.4-0.8,1-0.8,1.8c0,0.5,0.1,0.9,0.4,1.3
			c0.3,0.3,0.7,0.6,1.3,0.8c0.6,0.2,1.3,0.4,2.2,0.6c0.9,0.2,1.8,0.5,2.7,0.8c0.8,0.3,1.3,0.8,1.7,1.3C30,20.9,30.2,21.6,30.2,22.5z
			"/>
		
			<linearGradient id="SVGID_2_" gradientUnits="userSpaceOnUse" x1="-1.0641" y1="37.7642" x2="-0.4102" y2="37.7642" gradientTransform="matrix(4.9824 0 0 -2.601 13.1806 127.0047)">
			<stop  offset="0" style="stop-color:#7B8BFC"/>
			<stop  offset="1" style="stop-color:#306BE6"/>
		</linearGradient>
		<path class="st3" d="M8.7,29.6h1.6c0.5,0,0.8-0.4,0.8-0.8l0,0c0-0.5-0.4-0.8-0.8-0.8l-1.6,0c-0.2,0-0.4,0.1-0.6,0.2
			c-0.2,0.2-0.2,0.4-0.2,0.6v0c0,0.2,0.1,0.4,0.2,0.6C8.3,29.5,8.5,29.6,8.7,29.6L8.7,29.6z"/>
	</g>
</g>
</svg>
