<?xml version="1.0" encoding="UTF-8"?>
<svg width="134px" height="49px" viewBox="0 0 134 49" version="1.1" xmlns="http://www.w3.org/2000/svg" xmlns:xlink="http://www.w3.org/1999/xlink">
    <!-- Generator: sketchtool 63.1 (101010) - https://sketch.com -->
    <title>C7FC7ADC-3CF7-45E6-AACC-6DFEE5B1B535</title>
    <desc>Created with sketchtool.</desc>
    <defs>
        <linearGradient x1="-5.99174717%" y1="50.0878578%" x2="105.928553%" y2="50.0878578%" id="linearGradient-1">
            <stop stop-color="#7B8BFC" offset="0%"></stop>
            <stop stop-color="#306BE6" offset="100%"></stop>
        </linearGradient>
        <linearGradient x1="-0.0202572393%" y1="50.0329263%" x2="99.9947976%" y2="50.0329263%" id="linearGradient-2">
            <stop stop-color="#7B8BFC" offset="0%"></stop>
            <stop stop-color="#306BE6" offset="19%"></stop>
            <stop stop-color="#3263CA" offset="23%"></stop>
            <stop stop-color="#355BAB" offset="27%"></stop>
            <stop stop-color="#38538F" offset="33%"></stop>
            <stop stop-color="#3A4D79" offset="39%"></stop>
            <stop stop-color="#3B4968" offset="46%"></stop>
            <stop stop-color="#3C455D" offset="54%"></stop>
            <stop stop-color="#3D4456" offset="66%"></stop>
            <stop stop-color="#3D4354" offset="100%"></stop>
        </linearGradient>
        <linearGradient x1="2.52293721e-05%" y1="50.1044082%" x2="100%" y2="50.1044082%" id="linearGradient-3">
            <stop stop-color="#7B8BFC" offset="0%"></stop>
            <stop stop-color="#306BE6" offset="100%"></stop>
        </linearGradient>
    </defs>
    <g id="sample" stroke="none" stroke-width="1" fill="none" fill-rule="evenodd">
        <g id="Lenders_list" transform="translate(-56.000000, -18.000000)">
            <g id="nav">
                <g id="spark_logo" transform="translate(57.000000, 19.000000)">
                    <path d="M25.7454185,18.657 C25.7499515,21.7307503 24.4711165,24.6668509 22.2174,26.757 C20.1748196,28.622868 18.9100464,31.1896892 18.675,33.9462 L18.675,33.957 C18.675,34.0092 18.666,34.0596 18.6624,34.1118 C18.5930242,34.5541566 18.2501736,34.903517 17.8092,34.9812 L11.7342,34.9812 C11.2360856,34.9801967 10.8063255,34.6314385 10.7028,34.1442 C10.7028,34.1442 10.7028,34.1298 10.7028,34.1226 C10.7028,34.056 10.692,33.993 10.6848,33.93 L10.6848,33.9084 C10.4759752,31.2091175 9.25429668,28.6886017 7.2648,26.8524 C3.49233781,23.4478805 2.52329836,17.9116977 4.91506328,13.4282074 C7.30682819,8.94471722 12.444647,6.66630201 17.3732986,7.90348302 C22.3019503,9.14066403 25.7546335,13.5754512 25.7454185,18.657 L25.7454185,18.657 Z" id="Path" stroke="url(#linearGradient-1)" stroke-width="2.6352"></path>
                    <line x1="14.6718" y1="0.0576" x2="14.6718" y2="3.0744" id="Path" stroke="#306BE6" stroke-width="1.1934" stroke-linecap="round" stroke-linejoin="round"></line>
                    <line x1="5.3928" y1="3.2166" x2="6.8472" y2="5.1336" id="Path" stroke="#306BE6" stroke-width="1.1934" stroke-linecap="round" stroke-linejoin="round"></line>
                    <line x1="0.0576" y1="10.62" x2="1.8954" y2="11.1366" id="Path" stroke="#306BE6" stroke-width="1.1934" stroke-linecap="round" stroke-linejoin="round"></line>
                    <line x1="14.6718" y1="0.0576" x2="14.6718" y2="3.0744" id="Path" stroke="#306BE6" stroke-width="1.1934" stroke-linecap="round" stroke-linejoin="round"></line>
                    <line x1="23.9508" y1="3.2166" x2="22.4964" y2="5.1336" id="Path" stroke="#306BE6" stroke-width="1.1934" stroke-linecap="round" stroke-linejoin="round"></line>
                    <line x1="29.286" y1="10.62" x2="27.4464" y2="11.1366" id="Path" stroke="#306BE6" stroke-width="1.1934" stroke-linecap="round" stroke-linejoin="round"></line>
                    <path d="M58.7646,40.9716 C57.4699659,40.9932863 56.1968667,40.6387444 55.0998,39.951 C54.0620827,39.3024391 53.1934039,38.4164854 52.5654,37.3662 L52.5654,47.4966 L49.7322,47.4966 L49.7322,23.9688 L52.2396,23.9688 L52.2396,27.1242 C52.9005148,26.1064868 53.7922859,25.2591192 54.8424,24.651 C55.9039051,24.0258866 57.1151406,23.7005264 58.347,23.7096 C59.447511,23.6972964 60.5361956,23.9374474 61.5294,24.4116 C62.4851647,24.8737786 63.3374804,25.524649 64.035,26.325 C64.7459764,27.1395317 65.3066788,28.0738326 65.691,29.0844 C66.0873973,30.1184475 66.2887956,31.2169838 66.285,32.3244 C66.3040006,33.8234396 65.9827413,35.3072635 65.3454,36.6642 C64.7575321,37.9299415 63.8413929,39.0151377 62.6922,39.807 C61.5342858,40.5906479 60.1625284,40.9973973 58.7646,40.9716 Z M57.897,38.529 C58.683904,38.540712 59.4617876,38.3602974 60.1632,38.0034 C60.8306668,37.6600126 61.4210962,37.1841167 61.8984,36.6048 C62.3838903,36.013685 62.7588827,35.339918 63.0054,34.6158 C63.2617439,33.8790966 63.3919711,33.1044271 63.3906941,32.3244 C63.3949601,31.5199219 63.2477961,30.7218168 62.9568,29.9718 C62.6772125,29.2413816 62.263274,28.5698 61.7364,27.9918 C61.2192588,27.4263938 60.5968493,26.9672293 59.904,26.64 C59.1946888,26.3090822 58.4204816,26.1405891 57.6378,26.1468 C57.0950603,26.1518354 56.5570783,26.2485991 56.0466,26.433 C55.4914458,26.6282403 54.9666597,26.9009351 54.4878,27.243 C54.0103224,27.5739376 53.5855368,27.9750566 53.2278,28.4328 C52.8996789,28.8550886 52.6730411,29.3471637 52.5654,29.871 L52.5654,34.623 C52.886507,35.3434856 53.3203437,36.0082158 53.8506,36.5922 C54.376519,37.1776853 55.0094687,37.6572852 55.7154,38.0052 C56.3919549,38.3471228 57.1389556,38.5264769 57.897,38.529 Z" id="Shape" fill="#3D4354" fill-rule="nonzero"></path>
                    <path d="M68.4378,35.829 C68.4159983,34.829987 68.7396134,33.8540554 69.354,33.066 C70.0188134,32.2523963 70.8887598,31.6310061 71.874,31.266 C73.0656242,30.816308 74.3319732,30.5976139 75.6054,30.6216 C76.4018116,30.6264148 77.1969262,30.6865596 77.985,30.8016 C78.7410251,30.9036866 79.4842793,31.0846739 80.2026,31.3416 L80.2026,30.1266 C80.2026,28.8594 79.8168,27.861 79.0452,27.1314 C78.2736,26.4018 77.181,26.0376 75.7674,26.0388 C74.860194,26.0358809 73.9606085,26.2044387 73.116,26.5356 C72.1734657,26.9215517 71.2734599,27.4041285 70.4304,27.9756 L69.4026,25.983 C70.413876,25.274654 71.5165177,24.7066815 72.6804,24.2946 C73.7771487,23.919544 74.9286994,23.729748 76.0878,23.7329589 C78.2298,23.7329589 79.923,24.3228 81.1674,25.5024 C82.4118,26.682 83.0328,28.3182 83.0304,30.411 L83.0304,37.4544 C83.008654,37.7208964 83.0826912,37.9864093 83.2392,38.2032 C83.4250416,38.3807309 83.67343,38.4777576 83.9304,38.4732 L83.9304,40.6584 C83.652,40.7016 83.412,40.734 83.2104,40.7556 C83.0454555,40.7748057 82.8796418,40.7856196 82.7136,40.788 C82.0488,40.788 81.5502,40.608 81.2178,40.248 C80.9098803,39.933423 80.7127462,39.5271498 80.6562,39.0906 L80.5914,38.0304 C79.840069,38.9909141 78.8554343,39.7431775 77.7312,40.2156 C76.6298849,40.7134287 75.4369524,40.9764133 74.2284,40.9878 C73.1906052,41.0061686 72.1641038,40.7700918 71.2386,40.3002 C70.3992586,39.8782545 69.6886927,39.2385587 69.1812,38.448 C68.6836631,37.6660126 68.42529,36.7557635 68.4378,35.829 Z M79.3674,37.0044 C79.6078943,36.7312977 79.812918,36.428903 79.9776,36.1044 C80.1087759,35.8642137 80.1855861,35.598143 80.2026,35.325 L80.2026,33.2496 C79.5247866,32.9919567 78.8254426,32.7949838 78.1128,32.661 C77.4009364,32.5240551 76.6777159,32.4547465 75.9528,32.454 C74.5128,32.454 73.35,32.7348 72.4644,33.2964 C71.5788,33.858 71.1342,34.6272 71.1306,35.604 C71.1352873,36.1482168 71.2850331,36.6813368 71.5644,37.1484 C71.8741046,37.6658495 72.3190705,38.0890339 72.8514,38.3724 C73.5000032,38.7099958 74.2248218,38.8743045 74.9556,38.8494 C75.820935,38.8554193 76.6778011,38.6787712 77.4702,38.331 C78.1905427,38.0301995 78.8376238,37.5777339 79.3674,37.0044 L79.3674,37.0044 Z" id="Shape" fill="#3D4354" fill-rule="nonzero"></path>
                    <path d="M96.4332,26.3466 C95.1079836,26.3439048 93.8093799,26.718502 92.6892,27.4266 C91.6230714,28.1031837 90.8139319,29.1169842 90.3906,30.3066 L90.3906,40.6548 L87.5628,40.6548 L87.5628,23.9688 L90.198,23.9688 L90.198,27.7614 C90.7330886,26.6563947 91.5204716,25.6926675 92.4966,24.948 C93.3623853,24.2689788 94.4052823,23.8534447 95.5008,23.751 L96.0408,23.751 C96.1699494,23.7492102 96.2989641,23.7600619 96.426,23.7834 L96.4332,26.3466 Z" id="Path" fill="#3D4354" fill-rule="nonzero"></path>
                    <polygon id="Path" fill="#3D4354" fill-rule="nonzero" points="111.0654 40.6494 105.2406 32.517 102.0654 35.496 102.0654 40.6494 99.2304 40.6494 99.2304 17.1864 102.0654 17.1864 102.0654 32.5494 110.7432 23.9688 113.8032 23.9688 107.1054 30.8844 114.1128 40.6494"></polygon>
                    <polygon id="Path" fill="#306BE6" fill-rule="nonzero" points="117.0054 40.6494 117.0054 23.751 119.898 23.751 119.898 40.6566"></polygon>
                    <polygon id="Path" fill="#306BE6" fill-rule="nonzero" points="123.048 40.671 123.048 23.7726 125.9406 23.7726 125.9406 38.1078 132.3054 38.1078 132.3054 40.671"></polygon>
                    <path d="M46.3896,34.4664 C46.4138712,35.4482223 46.198888,36.4212068 45.7632,37.3014 C45.3496229,38.0943634 44.7483481,38.7741191 44.0118,39.2814 C43.2125601,39.8261053 42.318956,40.2173623 41.3766,40.4352 C40.3149481,40.6847169 39.2271299,40.8055855 38.1366,40.7952 L12.1518,40.7952 C11.4320625,40.7952 10.8486,40.2117375 10.8486,39.492 L10.8486,39.492 C10.8495931,38.7719714 11.4335708,38.1887993 12.1536,38.1888 L29.6136,38.1888 L38.1294,38.1888 C39.7584,38.1888 41.0544,37.8972 41.9544,37.3104 C42.8544,36.7236 43.3044,35.8704 43.3044,34.7346 C43.3044,33.8802 43.0524,33.1968 42.5484,32.6844 C42.0444,32.172 41.2998,31.7448 40.3146,31.4028 C39.3294,31.0608 38.1294,30.7182 36.7146,30.375 C35.3853562,30.0634017 34.0842851,29.6419534 32.8248,29.115 C31.7736,28.6554 30.9858,28.0518 30.4614,27.3042 C29.937,26.5566 29.6748,25.584 29.6748,24.3864 C29.6748,22.9332 30.0282,21.705 30.735,20.7018 C31.4722326,19.679464 32.4901507,18.8928909 33.6654,18.4374 C35.0045272,17.9065688 36.4352894,17.6453736 37.8756,17.6688 C38.8448461,17.6622288 39.8114967,17.7697687 40.7556,17.9892 C41.6172494,18.1944062 42.4529512,18.4963216 43.2468,18.8892 C44.0036622,19.2672546 44.714533,19.7311023 45.3654,20.2716 L44.0154,22.6116 C43.7151789,22.2756348 43.3691888,21.9835731 42.9876,21.744 C42.5307369,21.4501935 42.0488735,21.1972152 41.5476,20.988 C40.9810229,20.7562673 40.3948989,20.5755508 39.7962,20.448 C39.1456676,20.3071593 38.4818007,20.2371515 37.8162,20.2392 C36.0582,20.2392 34.7616,20.5704 33.9264,21.2328 C33.0912,21.8952 32.6712,22.803 32.6664,23.9562 C32.6664,24.7674 32.8806,25.4088 33.309,25.8804 C33.7374,26.352 34.3974,26.736 35.289,27.0324 C36.1782,27.3324 37.3086,27.6426 38.6802,27.963 C40.0872103,28.2500119 41.4642299,28.6682401 42.7932,29.2122 C43.95,29.7042 44.8392,30.3606 45.4608,31.1814 C46.0854,32.0058 46.3896,33.0984 46.3896,34.4664 Z" id="Path" fill="url(#linearGradient-2)" fill-rule="nonzero"></path>
                    <path d="M13.4712,45.3726 L15.8706,45.3726 C16.5843728,45.3726 17.163,44.7939728 17.163,44.0802 L17.163,44.0802 C17.163,43.3702236 16.5895653,42.7935608 15.8796,42.7896 L13.482,42.7716 C13.1376775,42.7692022 12.8066337,42.904306 12.5623116,43.1469384 C12.3179896,43.3895708 12.1805987,43.7196691 12.1805987,44.064 L12.1805987,44.0784 C12.1801223,44.4211659 12.3158275,44.7500827 12.557862,44.9927924 C12.7998966,45.235502 13.1284341,45.3721229 13.4712,45.3726 L13.4712,45.3726 Z" id="Path" fill="url(#linearGradient-3)" fill-rule="nonzero"></path>
                </g>
            </g>
        </g>
    </g>
</svg>