<?xml version="1.0" encoding="UTF-8"?>
<svg width="17px" height="17px" viewBox="0 0 17 17" version="1.1" xmlns="http://www.w3.org/2000/svg" xmlns:xlink="http://www.w3.org/1999/xlink">
    <!-- Generator: sketchtool 63.1 (101010) - https://sketch.com -->
    <title>F5406F1B-81E7-4BE4-A1B9-57A009DFF8C5</title>
    <desc>Created with sketchtool.</desc>
    <g id="sample" stroke="none" stroke-width="1" fill="none" fill-rule="evenodd">
        <g id="Lenders_list" transform="translate(-1324.000000, -37.000000)" fill="#FF3863" fill-rule="nonzero" stroke="#FF3863">
            <g id="nav">
                <g id="Group-4" transform="translate(1268.000000, 35.000000)">
                    <g id="logout" transform="translate(56.500000, 3.000000)">
                        <path d="M7.2182,14.4364 L0.96244,14.4364 L0.96244,0.96244 L7.2182,0.96244 C7.48384,0.96244 7.6994,0.74684 7.6994,0.48124 C7.6994,0.21564 7.4838,4e-05 7.2182,4e-05 L0.4812,4e-05 C0.2156,4e-05 0,0.2156 0,0.48124 L0,14.9176 C0,15.18324 0.2156,15.3988 0.4812,15.3988 L7.21816,15.3988 C7.4838,15.3988 7.6994,15.1832 7.6994,14.9176 C7.6994,14.65196 7.4838,14.4364 7.2182,14.4364 Z" id="Path"></path>
                        <path d="M15.25924,7.36352 L11.93888,3.99552 C11.75072,3.80544 11.44612,3.80592 11.25844,3.99552 C11.07028,4.18512 11.07028,4.49308 11.25844,4.68268 L13.76076,7.22108 L3.85116,7.22108 C3.58552,7.22108 3.36996,7.4386 3.36996,7.70712 C3.36996,7.97564 3.58556,8.19316 3.85116,8.19316 L13.76076,8.19316 L11.25844,10.73156 C11.07028,10.92164 11.07028,11.22912 11.25844,11.41872 C11.4466,11.6088 11.7512,11.6088 11.93888,11.41872 L15.25876,8.05072 C15.44452,7.86352 15.44644,7.55024 15.25924,7.36352 Z" id="Path"></path>
                    </g>
                </g>
            </g>
        </g>
    </g>
</svg>